<svg xmlns="http://www.w3.org/2000/svg" viewBox="0 0 1146.83 120.84"><defs><style>.a{fill:#1e90ff;opacity:0.3;}.b,.g,.h,.j{fill:#1564b2;}.b,.g{stroke:#1564b2;}.b,.c,.f,.g,.l{stroke-miterlimit:10;}.c,.f{fill:none;}.c,.f,.l{stroke:#000;}.c{stroke-width:3px;}.d{font-size:25px;}.d,.h,.j,.m{font-family:ArialMT, Arial;}.e{letter-spacing:-0.11em;}.f,.g,.l{stroke-width:2px;}.h,.m{font-size:20px;}.i{letter-spacing:-0.04em;}.j{font-size:18px;}.k{letter-spacing:-0.02em;}</style></defs><title>history</title><rect class="a" x="539.97" y="3.33" width="146.34" height="41.33"/><line class="b" x1="686.32" y1="3.33" x2="686.32" y2="44.66"/><rect class="a" y="3.33" width="146.34" height="41.33"/><line class="b" x1="146.34" y1="3.33" x2="146.34" y2="44.67"/><rect class="a" x="989.95" y="3.33" width="146.34" height="41.33"/><line class="b" x1="1136.29" y1="3.33" x2="1136.29" y2="44.67"/><rect class="a" x="629.97" y="3.33" width="146.34" height="41.33"/><line class="b" x1="776.31" y1="3.33" x2="776.31" y2="44.66"/><rect class="a" x="719.96" y="3.33" width="146.34" height="41.33"/><line class="b" x1="866.31" y1="3.33" x2="866.31" y2="44.67"/><line class="c" x1="146.34" y1="24" x2="1136.29" y2="24"/><line class="c" x1="1136.29" x2="1136.29" y2="48"/><line class="c" x1="146.34" x2="146.34" y2="48"/><text class="d" transform="translate(118.81 75.84)">From</text><text class="d" transform="translate(1120.43 75.84)"><tspan class="e">T</tspan><tspan x="12.5" y="0">o</tspan></text><line class="f" x1="1046.3" y1="12" x2="1046.3" y2="36"/><line class="f" x1="956.3" y1="12" x2="956.3" y2="36"/><line class="f" x1="866.31" y1="12" x2="866.31" y2="36"/><line class="f" x1="776.31" y1="12" x2="776.31" y2="36"/><line class="f" x1="686.32" y1="12" x2="686.32" y2="36"/><line class="f" x1="596.32" y1="12" x2="596.32" y2="36"/><line class="f" x1="506.32" y1="12" x2="506.32" y2="36"/><line class="f" x1="416.33" y1="12" x2="416.33" y2="36"/><line class="f" x1="326.33" y1="12" x2="326.33" y2="36"/><line class="f" x1="236.34" y1="12" x2="236.34" y2="36"/><line class="g" x1="539.97" y1="46.59" x2="539.97" y2="58.58"/><line class="g" x1="686.32" y1="46.59" x2="686.32" y2="58.58"/><line class="g" x1="686.32" y1="52.59" x2="539.97" y2="52.59"/><text class="h" transform="translate(559.89 75.84)"><tspan class="i">T</tspan><tspan x="11.47" y="0">ime Period*</tspan></text><text class="j" transform="translate(917.31 115)">*<tspan class="k" x="7" y="0"> </tspan><tspan class="i" x="11.68" y="0">T</tspan><tspan x="22.01" y="0">ime Periods can overlap</tspan></text><line class="l" x1="416.33" y1="46.59" x2="416.33" y2="58.58"/><line class="l" x1="506.32" y1="46.59" x2="506.32" y2="58.58"/><line class="l" x1="506.32" y1="52.59" x2="416.33" y2="52.59"/><text class="m" transform="translate(410.81 75.84)">30 seconds</text></svg>